<svg width="23" height="24" viewBox="0 0 23 24" fill="none" xmlns="http://www.w3.org/2000/svg">
<path d="M11.4281 7.90818C9.32203 7.90818 7.62415 9.62247 7.62415 11.7123C7.62415 13.8021 9.33836 15.5163 11.4281 15.5163C13.5178 15.5163 15.232 13.8021 15.232 11.7123C15.232 9.62247 13.5178 7.90818 11.4281 7.90818ZM22.8561 11.7123C22.8561 10.1286 22.8561 8.57757 22.7745 6.9939C22.6929 5.16532 22.2684 3.53267 20.9297 2.21022C19.591 0.871447 17.9747 0.446957 16.1462 0.365324C14.5626 0.283691 13.0117 0.283691 11.4281 0.283691C9.84446 0.283691 8.29351 0.283691 6.70991 0.365324C4.88142 0.446957 3.24883 0.871447 1.92644 2.21022C0.587729 3.549 0.163258 5.16532 0.0816289 6.9939C-7.90639e-08 8.57757 0 10.1286 0 11.7123C0 13.2959 -7.90639e-08 14.847 0.0816289 16.4306C0.163258 18.2592 0.587729 19.8919 1.92644 21.2143C3.26516 22.5531 4.88142 22.9776 6.70991 23.0592C8.29351 23.1408 9.84446 23.1408 11.4281 23.1408C13.0117 23.1408 14.5626 23.1408 16.1462 23.0592C17.9747 22.9776 19.6073 22.5531 20.9297 21.2143C22.2684 19.8755 22.6929 18.2592 22.7745 16.4306C22.8724 14.8633 22.8561 13.2959 22.8561 11.7123ZM11.4281 17.5735C8.17923 17.5735 5.5671 14.9612 5.5671 11.7123C5.5671 8.46328 8.17923 5.85104 11.4281 5.85104C14.6769 5.85104 17.289 8.46328 17.289 11.7123C17.289 14.9612 14.6769 17.5735 11.4281 17.5735ZM17.5339 6.97757C16.7829 6.97757 16.1625 6.37349 16.1625 5.60614C16.1625 4.83879 16.7666 4.23471 17.5339 4.23471C18.3012 4.23471 18.9053 4.83879 18.9053 5.60614C18.9094 5.78498 18.8768 5.96275 18.8094 6.12845C18.742 6.29415 18.6412 6.44424 18.5135 6.56941C18.3883 6.6972 18.2382 6.79792 18.0725 6.86532C17.9068 6.93273 17.7291 6.96537 17.5502 6.96124L17.5339 6.97757Z" fill="white"/>
</svg>
