<svg width="1453" height="425" viewBox="0 0 1453 425" fill="none" xmlns="http://www.w3.org/2000/svg">
<path d="M585 112.295C582.64 112.925 583.31 111.675 582.71 111.015C569.19 95.8853 558.51 83.8953 537.22 79.5753C472.41 66.4053 455.71 144.685 469.29 192.505C480.04 230.365 518.71 245.285 554.54 233.335C555.53 207.225 555.81 180.375 548 155.295H590C583.56 182.525 585.67 210.545 584.52 238.315C554.03 252.575 514.37 255.515 483.33 241.465C415.24 210.665 416.02 109.895 481.32 76.1053C512.1 60.1753 555.65 61.3853 585.01 79.7953V112.295H585Z" fill="white"/>
<path d="M382 104.295C378.09 101.345 375.76 96.9953 372.01 93.7853C365.02 87.7853 348.58 80.2953 339.5 80.2953H298V151.295H329.5C338.69 151.295 350.27 144.855 356.01 137.805C357.31 136.215 357.35 133.705 359 133.295V181.295C357.05 180.025 356.22 177.235 354.51 175.285C348.84 168.825 338.17 163.295 329.5 163.295H298V235.295H340.5C343.5 235.295 355.6 232.005 358.98 230.775C369.41 226.975 378.92 219.675 386 211.295V248.295H260C264.43 236.325 266.42 223.615 267.04 210.835C268.62 178.535 268.5 138.095 267.04 105.745C266.45 92.6053 264.67 79.5853 259.99 67.2953H380.49L381.99 68.7953V104.295H382Z" fill="white"/>
<path d="M951 106.295C948.64 106.925 949.31 105.685 948.71 105.015C935.1 89.7253 920.43 77.9153 898.54 77.2553C876.65 76.5953 854.34 90.6053 864.6 115.195C875.22 140.635 934.02 143.695 951.42 173.375C964.1 195.015 957.15 223.465 937.33 238.125C909.17 258.975 864.03 250.885 835 235.295V203.295L840.97 210.825C855.37 233.575 916.39 253.445 928.29 221.095C947.3 169.415 848.17 174.435 837.45 129.355C830.45 99.9253 848.56 74.8853 876.8 67.6053C899.64 61.7153 931.22 65.9653 951 78.8053V106.305V106.295Z" fill="white"/>
<path d="M1124 77.2953V106.295C1113.29 94.0053 1102.16 84.1453 1085.99 79.8053C1063.81 73.8453 1032.21 79.3153 1036.09 108.715C1040.81 144.445 1124.65 141.225 1130.75 189.055C1139.43 257.105 1049.21 263.265 1008.01 233.795V203.295C1019.25 217.275 1032.47 229.295 1050 234.805C1075.2 242.725 1109.42 236.815 1102.76 203.035C1095.54 166.375 1014.88 170.545 1010 124.805C1003.16 60.7653 1081.6 54.4453 1124.01 77.2953H1124Z" fill="white"/>
<path d="M795 248.295H749.5L748.24 246.835L748.88 226.915C739.54 181.345 717.99 139.445 703.99 95.2953L701.77 96.5652L673.01 173.295H725.01C725.68 176.025 722.97 175.555 721.21 175.965C707.57 179.165 690.62 178.405 677.57 182.355C668.7 185.035 666.53 190.475 663.75 198.535C658.24 214.535 656.67 231.655 660.01 248.295H630.01L698.19 68.9753L698.97 67.7553C703.04 67.4453 723.81 66.2053 725.53 68.2753L795.01 248.295H795Z" fill="white"/>
<path d="M1292 67.2953H1322L1321.22 71.0153L1262.25 176.045C1262.43 200.095 1261.58 224.985 1268.01 248.305H1226.01C1232.72 226.375 1231.46 202.845 1231.77 180.045L1168.01 67.3053H1213.51L1214.79 68.7653C1210.34 83.6453 1217.95 99.9453 1224.84 112.975C1233.74 129.815 1244.73 145.925 1254.51 162.285C1269.61 132.345 1298.73 103.485 1292.01 67.3053L1292 67.2953Z" fill="white"/>
<path d="M130 67.2953C126.87 79.9453 126.2 92.8153 124.96 105.755L125 235.295H164.5C167.6 235.295 178.65 232.175 182.21 231.005C194.4 227.005 202.11 220.085 211 211.295V248.295H87L92.9 227.695C95.58 192.105 95.21 156.445 93.96 120.835C93.31 102.465 95.14 84.5553 87 67.2953H130Z" fill="white"/>
<path d="M719 358.295L725.86 354.655L725.88 326.405L719 323.295H743.5C745.28 323.295 754.18 326.645 755.95 327.845C765.6 334.325 763.69 350.055 753.7 355.505C752.25 356.295 746.72 358.295 745.49 358.295H718.99H719ZM732 357.295C742.49 358.065 753.84 356.325 755.05 343.845C756.66 327.225 746.54 323.995 732 324.295V357.295Z" fill="white"/>
<path d="M841.75 322.555C854.64 320.885 870.73 329.495 867.55 344.355C863.24 364.455 827.47 364.435 823.44 344.355C821.09 332.635 830.97 323.955 841.75 322.555ZM839.74 324.535C827.46 327.665 826.22 351.825 839.03 356.755C848.16 360.275 857.73 356.925 860.15 346.935C863.67 332.395 855.52 320.515 839.75 324.535H839.74Z" fill="white"/>
<path d="M572.99 322.305V333.295C569.27 333.065 568.78 327.775 565.97 325.825C561.79 322.915 549.92 322.865 549.89 329.805C549.85 338.775 576.36 337.475 576.73 348.985C577.18 362.665 543.59 361.435 541.98 352.815C541.51 350.285 542.28 346.975 541.98 344.305H544.96C542.92 358.715 570.19 363.425 570.06 350.785C569.97 342.225 549.48 343.015 545.12 334.685C540.32 325.525 554.3 321.465 561.41 322.395C563.76 322.705 566.3 324.555 568.46 324.325C570.36 324.125 570.97 321.935 572.99 322.315V322.305Z" fill="white"/>
<path d="M634 323.295C633.86 325.195 634.8 334.305 632.5 334.275C628.14 326.885 628.49 322.515 618 324.295V354.795L624.99 357.305V358.295H604L611.49 354.355L611.75 325.745C602.01 320.245 600.76 327.455 596.5 334.265C594.21 334.325 595.14 325.175 595 323.285H634V323.295Z" fill="white"/>
<path d="M672 323.295L665.95 326.955C667.09 341.275 660.22 359.425 681.56 357.355C695.75 355.985 689.94 337.735 690.83 327.955L683.99 323.295H699.99C699 326.215 694.13 325.105 693.15 327.955C689.79 337.775 700.04 357.475 680.54 359.345C656.3 361.665 659.92 346.025 659.83 327.955L652.99 323.295H671.99H672Z" fill="white"/>
<path d="M803 323.295L796.14 326.435V354.655L803 358.295H783L790.04 354.615C789.19 349.825 791.48 329.165 789.03 326.765C787.36 325.125 782.92 325.605 782 323.295H803Z" fill="white"/>
</svg>
