<svg width="18" height="21" viewBox="0 0 18 21" fill="none" xmlns="http://www.w3.org/2000/svg">
<path d="M14.2806 3.84574C13.4961 2.97854 13.0637 1.86507 13.0638 0.712402H9.51658V14.4902C9.48979 15.2359 9.16475 15.9425 8.61005 16.4607C8.05534 16.979 7.31433 17.2684 6.54337 17.268C4.91326 17.268 3.55867 15.9791 3.55867 14.3791C3.55867 12.468 5.46429 11.0346 7.4273 11.6235V8.1124C3.46684 7.60129 0 10.5791 0 14.3791C0 18.0791 3.16837 20.7124 6.53189 20.7124C10.1365 20.7124 13.0638 17.8791 13.0638 14.3791V7.39018C14.5022 8.39001 16.2291 8.92645 18 8.92351V5.49018C18 5.49018 15.8418 5.59018 14.2806 3.84574Z" fill="white"/>
</svg>
