<svg width="21" height="21" viewBox="0 0 21 21" fill="none" xmlns="http://www.w3.org/2000/svg">
<path d="M8.92772 1.70277C9.1257 1.48166 9.36809 1.30478 9.63906 1.18369C9.91003 1.06259 10.2035 1 10.5003 1C10.7971 1 11.0906 1.06259 11.3615 1.18369C11.6325 1.30478 11.8749 1.48166 12.0729 1.70277L12.8117 2.52811C13.0228 2.764 13.2843 2.94936 13.5768 3.07049C13.8693 3.19161 14.1853 3.2454 14.5014 3.22786L15.6096 3.16664C15.906 3.1503 16.2025 3.19667 16.4798 3.30271C16.7571 3.40875 17.0089 3.57209 17.2187 3.78205C17.4286 3.99201 17.5918 4.24387 17.6977 4.5212C17.8036 4.79852 17.8498 5.09507 17.8334 5.39147L17.7721 6.4986C17.7548 6.81453 17.8086 7.13031 17.9297 7.42261C18.0509 7.71491 18.2361 7.97624 18.4719 8.18728L19.2972 8.92607C19.5185 9.12406 19.6955 9.36651 19.8167 9.63758C19.9379 9.90865 20.0006 10.2022 20.0006 10.4992C20.0006 10.7961 19.9379 11.0897 19.8167 11.3608C19.6955 11.6318 19.5185 11.8743 19.2972 12.0723L18.4719 12.8111C18.236 13.0222 18.0506 13.2837 17.9295 13.5762C17.8084 13.8687 17.7546 14.1847 17.7721 14.5008L17.8334 15.609C17.8497 15.9054 17.8033 16.2019 17.6973 16.4792C17.5912 16.7565 17.4279 17.0083 17.218 17.2181C17.008 17.428 16.7561 17.5912 16.4788 17.6971C16.2015 17.803 15.9049 17.8492 15.6085 17.8328L14.5014 17.7716C14.1855 17.7542 13.8697 17.808 13.5774 17.9292C13.2851 18.0503 13.0238 18.2356 12.8127 18.4713L12.0739 19.2966C11.8759 19.5179 11.6335 19.695 11.3624 19.8162C11.0913 19.9374 10.7978 20 10.5008 20C10.2039 20 9.9103 19.9374 9.63923 19.8162C9.36816 19.695 9.12571 19.5179 8.92772 19.2966L8.18892 18.4713C7.97777 18.2354 7.71627 18.05 7.42378 17.9289C7.13128 17.8078 6.81529 17.754 6.49919 17.7716L5.391 17.8328C5.09459 17.8491 4.79807 17.8027 4.5208 17.6967C4.24352 17.5907 3.99174 17.4273 3.78187 17.2174C3.57201 17.0074 3.4088 16.7555 3.30289 16.4782C3.19698 16.2009 3.15075 15.9043 3.16723 15.6079L3.22845 14.5008C3.24583 14.1849 3.19197 13.8691 3.07084 13.5768C2.94972 13.2845 2.76444 13.0232 2.5287 12.8121L1.70336 12.0733C1.48207 11.8753 1.30505 11.6329 1.18385 11.3618C1.06265 11.0908 1 10.7972 1 10.5002C1 10.2033 1.06265 9.90971 1.18385 9.63864C1.30505 9.36757 1.48207 9.12512 1.70336 8.92713L2.5287 8.18833C2.76458 7.97718 2.94995 7.71568 3.07108 7.42319C3.1922 7.13069 3.24599 6.8147 3.22845 6.4986L3.16723 5.39041C3.15105 5.09409 3.19753 4.79768 3.30364 4.52054C3.40975 4.24339 3.57311 3.99173 3.78305 3.78199C3.99299 3.57224 4.24481 3.40912 4.52205 3.30328C4.7993 3.19743 5.09575 3.15123 5.39206 3.1677L6.49919 3.22891C6.81512 3.24629 7.1309 3.19243 7.4232 3.07131C7.7155 2.95019 7.97683 2.76491 8.18787 2.52917L8.92772 1.70277Z" stroke="#414141" stroke-width="2"/>
<path d="M7.86133 7.86133H7.87188V7.87188H7.86133V7.86133ZM13.1384 13.1384H13.149V13.149H13.1384V13.1384Z" stroke="#414141" stroke-width="3" stroke-linejoin="round"/>
<path d="M13.6665 7.3335L7.33398 13.666" stroke="#414141" stroke-width="2" stroke-linecap="round" stroke-linejoin="round"/>
</svg>
