<svg width="20" height="17" viewBox="0 0 20 17" fill="none" xmlns="http://www.w3.org/2000/svg">
<path d="M17 0.5C17.7652 0.499957 18.5015 0.792325 19.0583 1.31728C19.615 1.84224 19.9501 2.56011 19.995 3.324L20 3.5V5.317C19.9977 5.58708 19.925 5.85189 19.7888 6.08518C19.6527 6.31847 19.458 6.51214 19.224 6.647L19.117 6.705C18.7935 6.8638 18.5189 7.10707 18.3222 7.4091C18.1256 7.71112 18.0142 8.06067 17.9998 8.42079C17.9855 8.78091 18.0687 9.13821 18.2407 9.45492C18.4127 9.77163 18.6671 10.036 18.977 10.22L19.117 10.295C19.55 10.509 19.937 10.951 19.993 11.535L20 11.683V13.5C20 14.2652 19.7077 15.0015 19.1827 15.5583C18.6578 16.115 17.9399 16.4501 17.176 16.495L17 16.5H3C2.23479 16.5 1.49849 16.2077 0.941739 15.6827C0.384993 15.1578 0.0498925 14.4399 0.00500012 13.676L4.66045e-09 13.5V11.683C4.66045e-09 11.077 0.352 10.605 0.776 10.353L0.883 10.295C1.20653 10.1362 1.48114 9.89293 1.67779 9.5909C1.87445 9.28888 1.98583 8.93933 2.00017 8.57921C2.01452 8.21909 1.93129 7.86179 1.75928 7.54508C1.58727 7.22837 1.33288 6.96403 1.023 6.78L0.883 6.705C0.45 6.491 0.063 6.049 0.00699997 5.465L4.66045e-09 5.318V3.5C-4.26217e-05 2.73479 0.292325 1.99849 0.817284 1.44174C1.34224 0.884993 2.06011 0.549892 2.824 0.505L3 0.5H17ZM17 2.5H3C2.75507 2.50003 2.51866 2.58996 2.33563 2.75272C2.15259 2.91547 2.03566 3.13975 2.007 3.383L2 3.5V5.035C2.59245 5.37679 3.08737 5.86479 3.43746 6.45238C3.78755 7.03997 3.98112 7.70751 3.99967 8.39124C4.01823 9.07496 3.86116 9.75202 3.54346 10.3577C3.22575 10.9634 2.75804 11.4776 2.185 11.851L2 11.965V13.5C2.00003 13.7449 2.08996 13.9813 2.25272 14.1644C2.41547 14.3474 2.63975 14.4643 2.883 14.493L3 14.5H17C17.2449 14.5 17.4813 14.41 17.6644 14.2473C17.8474 14.0845 17.9643 13.8603 17.993 13.617L18 13.5V11.965C17.4075 11.6232 16.9126 11.1352 16.5625 10.5476C16.2125 9.96003 16.0189 9.29249 16.0003 8.60876C15.9818 7.92504 16.1388 7.24798 16.4565 6.64227C16.7742 6.03655 17.242 5.52243 17.815 5.149L18 5.035V3.5C18 3.25507 17.91 3.01866 17.7473 2.83563C17.5845 2.65259 17.3603 2.53566 17.117 2.507L17 2.5ZM8 5.5C8.24493 5.50003 8.48134 5.58996 8.66437 5.75272C8.84741 5.91547 8.96434 6.13975 8.993 6.383L9 6.5V10.5C8.99972 10.7549 8.90212 11 8.72715 11.1854C8.55218 11.3707 8.31305 11.4822 8.05861 11.4972C7.80416 11.5121 7.55362 11.4293 7.35817 11.2657C7.16271 11.1021 7.0371 10.8701 7.007 10.617L7 10.5V6.5C7 6.23478 7.10536 5.98043 7.29289 5.79289C7.48043 5.60536 7.73478 5.5 8 5.5Z" fill="#414141"/>
</svg>
