<svg width="18" height="18" viewBox="0 0 18 18" fill="none" xmlns="http://www.w3.org/2000/svg">
<path d="M2 2.5C1.46957 2.5 0.960859 2.71071 0.585786 3.08579C0.210714 3.46086 0 3.96957 0 4.5L0 13.5C0 14.0304 0.210714 14.5391 0.585786 14.9142C0.960859 15.2893 1.46957 15.5 2 15.5H5V2.5H2ZM16 2.5H13V15.5H16C16.5304 15.5 17.0391 15.2893 17.4142 14.9142C17.7893 14.5391 18 14.0304 18 13.5V4.5C18 3.96957 17.7893 3.46086 17.4142 3.08579C17.0391 2.71071 16.5304 2.5 16 2.5Z" fill="#D52B1E"/>
<path d="M5 2.5H13V15.5H5V2.5Z" fill="#EEEEEE"/>
<path d="M9.30732 11.0563C9.90632 11.1258 10.4433 11.1883 11.0418 11.2568L10.8893 10.7558C10.8781 10.7127 10.8796 10.6672 10.8938 10.625C10.9079 10.5827 10.9339 10.5455 10.9688 10.5178L12.7083 9.10078L12.3483 8.93129C12.1898 8.87479 12.2333 8.78529 12.2908 8.57029L12.5563 7.60228L11.5458 7.81578C11.4473 7.83078 11.3818 7.76828 11.3668 7.70828L11.2363 7.25278L10.4373 8.14978C10.3238 8.29378 10.0938 8.29378 10.1653 7.96178L10.5068 6.14478L10.0483 6.38229C9.91982 6.45429 9.79132 6.46628 9.71982 6.33778L9.08732 5.15479L8.45482 6.33778C8.38282 6.46628 8.25432 6.45429 8.12582 6.38229L7.66782 6.14478L8.00932 7.96178C8.08132 8.29378 7.85082 8.29378 7.73732 8.14978L6.93832 7.25328L6.80832 7.70879C6.79332 7.76879 6.72732 7.83129 6.62882 7.81629L5.61832 7.60279L5.88382 8.57079C5.94032 8.78579 5.98432 8.87529 5.82582 8.93179L5.46582 9.10128L7.20532 10.5183C7.27432 10.5718 7.30932 10.6683 7.28432 10.7563L7.13182 11.2573L8.86682 11.0568C8.91982 11.0568 8.95482 11.0863 8.95432 11.1473L8.84732 12.9993H9.32532L9.21882 11.1473C9.21982 11.0858 9.25432 11.0563 9.30732 11.0563Z" fill="#D52B1E"/>
</svg>
