<svg width="16" height="12" viewBox="0 0 16 12" fill="none" xmlns="http://www.w3.org/2000/svg">
<path d="M14.2222 0.222221H1.77778C1.30628 0.222221 0.854097 0.409522 0.520699 0.74292C0.187301 1.07632 0 1.5285 0 2L0 6H16V2C16 1.5285 15.8127 1.07632 15.4793 0.74292C15.1459 0.409522 14.6937 0.222221 14.2222 0.222221Z" fill="#FBD116"/>
<path d="M0 6H16V9.11111H0V6Z" fill="#22408C"/>
<path d="M0 10C0 10.4715 0.187301 10.9237 0.520699 11.2571C0.854097 11.5905 1.30628 11.7778 1.77778 11.7778H14.2222C14.6937 11.7778 15.1459 11.5905 15.4793 11.2571C15.8127 10.9237 16 10.4715 16 10V9.11111H0V10Z" fill="#CE2028"/>
</svg>
