<svg width="37" height="37" viewBox="0 0 37 37" fill="none" xmlns="http://www.w3.org/2000/svg">
<path d="M35.3697 12.2394C36.8024 16.0873 36.8752 20.3097 35.5762 24.2047C34.2771 28.0998 31.6844 31.4332 28.2289 33.6509C24.7733 35.8686 20.6629 36.8372 16.5807 36.3957C12.4985 35.9542 8.6903 34.1292 5.7888 31.2239C2.52953 27.9754 0.639412 23.6011 0.507409 19.0013C0.375406 14.4015 2.01156 9.92605 5.07917 6.49595C8.14678 3.06585 12.4125 0.942057 16.9984 0.56161C21.5844 0.181163 26.1418 1.57301 29.7327 4.45072L33.0799 1.10178C33.2658 0.915894 33.4865 0.76844 33.7294 0.667838C33.9723 0.567236 34.2326 0.515457 34.4955 0.515457C34.7583 0.515457 35.0187 0.567236 35.2615 0.667838C35.5044 0.76844 35.7251 0.915894 35.911 1.10178C36.0969 1.28767 36.2443 1.50835 36.3449 1.75123C36.4455 1.9941 36.4973 2.25441 36.4973 2.5173C36.4973 2.78018 36.4455 3.04049 36.3449 3.28337C36.2443 3.52624 36.0969 3.74692 35.911 3.93281L19.924 19.9198C19.7381 20.1057 19.5174 20.2531 19.2745 20.3537C19.0317 20.4543 18.7713 20.5061 18.5085 20.5061C18.2456 20.5061 17.9853 20.4543 17.7424 20.3537C17.4995 20.2531 17.2788 20.1057 17.0929 19.9198C16.9071 19.7339 16.7596 19.5132 16.659 19.2704C16.5584 19.0275 16.5066 18.7672 16.5066 18.5043C16.5066 18.2414 16.5584 17.9811 16.659 17.7382C16.7596 17.4953 16.9071 17.2747 17.0929 17.0888L21.0897 13.092C19.9632 12.5538 18.6969 12.3807 17.4673 12.5969C16.2377 12.813 15.1063 13.4076 14.2309 14.2977C13.3555 15.1877 12.7798 16.3289 12.5842 17.5619C12.3885 18.7949 12.5827 20.0582 13.1395 21.1755C13.6964 22.2929 14.5881 23.2085 15.6904 23.7947C16.7926 24.3808 18.0504 24.6083 19.2881 24.4453C20.5258 24.2822 21.6818 23.7369 22.5947 22.8853C23.5075 22.0337 24.1318 20.9184 24.3804 19.695C24.485 19.1754 24.7918 18.7186 25.2333 18.4252C25.6747 18.1318 26.2146 18.0257 26.7343 18.1304C27.2539 18.2351 27.7107 18.5419 28.0041 18.9834C28.2975 19.4248 28.4035 19.9647 28.2988 20.4843C27.8732 22.5812 26.7856 24.4861 25.1962 25.9186C23.6068 27.3511 21.5996 28.2356 19.4698 28.4418C17.3401 28.6481 15.2005 28.1652 13.3657 27.0644C11.531 25.9635 10.0981 24.3027 9.27796 22.3264C8.45782 20.3502 8.29373 18.1628 8.80985 16.0863C9.32596 14.0098 10.495 12.1539 12.145 10.7916C13.7949 9.42926 15.8386 8.63258 17.9753 8.51878C20.1119 8.40498 22.2287 8.98007 24.014 10.1594L26.8833 7.30007C24.188 5.28713 20.8576 4.3129 17.5023 4.55592C14.1471 4.79893 10.9918 6.24292 8.61472 8.62325C6.23761 11.0036 4.79791 14.1608 4.55944 17.5164C4.32098 20.8719 5.29973 24.201 7.31632 26.8936C9.33292 29.5862 12.2523 31.4619 15.5394 32.1769C18.8266 32.892 22.2613 32.3985 25.2142 30.787C28.1671 29.1754 30.4403 26.5537 31.6173 23.4023C32.7943 20.251 32.7963 16.781 31.6228 13.6283C31.5294 13.3818 31.4856 13.1192 31.4941 12.8558C31.5026 12.5923 31.5631 12.3332 31.6722 12.0932C31.7812 11.8532 31.9367 11.6372 32.1296 11.4576C32.3225 11.2779 32.5491 11.1382 32.7962 11.0465C33.0433 10.9548 33.3061 10.9129 33.5695 10.9232C33.8329 10.9335 34.0917 10.9958 34.3309 11.1065C34.5701 11.2172 34.785 11.3742 34.9633 11.5683C35.1416 11.7625 35.2797 11.99 35.3697 12.2377V12.2394Z" fill="#A14E05"/>
</svg>
