<svg width="37" height="37" viewBox="0 0 37 37" fill="none" xmlns="http://www.w3.org/2000/svg">
<path d="M3.04779 34.0027L3.04772 34.0025C2.55442 32.989 2.14513 31.6502 1.81786 30.2145C1.15744 27.3227 0.752945 23.7064 0.752945 20.6922C0.752945 17.7245 1.14061 15.6064 2.01101 14.1976C2.20704 13.8733 2.44348 13.5756 2.71435 13.3117C1.52191 12.3866 0.754096 10.94 0.752947 9.31308C0.720371 8.17638 0.958277 7.04818 1.44709 6.02141C2.12418 4.5773 3.40092 2.9409 5.71302 1.08945C5.94285 0.905297 6.22006 0.789853 6.51267 0.756431C6.8053 0.723007 7.10143 0.772983 7.36689 0.900595C7.63235 1.02821 7.85633 1.22826 8.013 1.47767C8.16965 1.72706 8.25262 2.01563 8.25236 2.31013M3.04779 34.0027L8.25236 2.31013M3.04779 34.0027C3.29339 34.5064 3.59903 35.0112 3.98441 35.4135L3.98605 35.4151M3.04779 34.0027L3.98605 35.4151M8.25236 2.31013C8.25236 2.31009 8.25236 2.31005 8.25236 2.31001H8.00236L8.25236 2.31025C8.25242 3.6815 8.76016 4.46325 9.44001 5.47605C9.44003 5.47608 9.44005 5.47611 9.44007 5.47615L9.49052 5.55094L9.49074 5.55128L9.50117 5.5668C10.0807 6.42909 10.8771 7.61398 10.8771 9.30936L8.25236 2.31013ZM3.98605 35.4151C4.37011 35.8085 4.98531 36.2534 5.81504 36.2534C6.64475 36.2534 7.26004 35.8086 7.64271 35.4147L7.6428 35.4148M3.98605 35.4151L7.6428 35.4148M7.6428 35.4148L7.6481 35.409M7.6428 35.4148L7.6481 35.409M7.6481 35.409C8.03007 34.9903 8.34503 34.515 8.5818 34.0001C9.07633 32.9851 9.48522 31.6491 9.81224 30.2127L9.81265 30.2108M7.6481 35.409L9.81265 30.2108M9.81265 30.2108C10.4996 27.0839 10.8564 23.8935 10.8771 20.6921V20.6905M9.81265 30.2108L10.8771 20.6905M10.8771 20.6905C10.8771 17.7227 10.4895 15.6065 9.61909 14.1977M10.8771 20.6905L9.61909 14.1977M9.61909 14.1977C9.4231 13.8733 9.1867 13.5757 8.91587 13.3119C9.48355 12.8719 9.95212 12.3154 10.2892 11.6785C10.6755 10.9486 10.8773 10.1353 10.8771 9.30942L9.61909 14.1977ZM4.27746 7.34917L4.27785 7.34832C4.52988 6.80676 4.96762 6.1212 5.73511 5.29615C6.06622 6.05904 6.47875 6.67332 6.82558 7.18827L6.84592 7.21879L6.84647 7.21959C7.47563 8.1554 7.75236 8.62757 7.75236 9.30942C7.75236 9.82323 7.54825 10.316 7.18493 10.6793C6.82161 11.0426 6.32885 11.2467 5.81504 11.2467C5.30123 11.2467 4.80847 11.0426 4.44515 10.6793C4.08183 10.316 3.87772 9.82323 3.87772 9.30942V9.30912C3.87772 8.79922 3.87772 8.19983 4.27746 7.34917ZM6.76648 29.5188C6.47295 30.8029 6.14391 31.8415 5.81504 32.5444C5.4863 31.8416 5.15735 30.802 4.86387 29.5199C4.22978 26.6192 3.89929 23.6604 3.87772 20.6913C3.87781 17.8631 4.27386 16.4802 4.66992 15.8381L4.67012 15.8383L4.67532 15.829C4.78236 15.6377 4.94182 15.481 5.13485 15.3774C5.3453 15.286 5.57396 15.2441 5.80322 15.2549L5.80321 15.2552H5.81504C6.14044 15.2552 6.34981 15.3058 6.49408 15.3766L6.49604 15.3776C6.62352 15.4387 6.78501 15.5562 6.96033 15.8384C7.35638 16.4806 7.75236 17.8638 7.75236 20.6922C7.75236 23.4752 7.37295 26.8582 6.76648 29.5188ZM12.4496 21.9017L12.1128 21.7537L12.0992 22.1213C12.0661 23.0102 12.0035 23.9294 11.9164 24.8526L11.8979 25.0485L12.0839 25.1125C12.9476 25.4098 13.8431 25.6041 14.7518 25.6917V28.5578C14.7518 30.1324 15.3773 31.6425 16.4907 32.7559C17.6041 33.8693 19.1142 34.4948 20.6888 34.4948H30.313C31.0926 34.4948 31.8647 34.3413 32.585 34.0429C33.3053 33.7445 33.9598 33.3072 34.5111 32.7559C35.0624 32.2046 35.4997 31.5501 35.7981 30.8298C36.0964 30.1095 36.25 29.3375 36.25 28.5578V18.9336C36.25 18.1539 36.0964 17.3819 35.7981 16.6616C35.4997 15.9413 35.0624 15.2868 34.5111 14.7355C33.9598 14.1842 33.3053 13.7469 32.585 13.4485C31.8647 13.1502 31.0926 12.9966 30.313 12.9966H27.4467C27.2666 11.138 26.6412 9.3489 25.6221 7.78151C24.5608 6.14932 23.1066 4.80982 21.393 3.88595C19.6793 2.96208 17.761 2.48344 15.8141 2.49395C13.8673 2.50445 11.9543 3.00378 10.2507 3.94609L10.0144 4.07676L10.1628 4.30229L10.476 4.77825L10.476 4.77826L10.4777 4.78078L10.5652 4.91027L10.5652 4.91029L10.5679 4.91412C10.9255 5.42258 11.2391 5.96057 11.5054 6.52226L11.6181 6.75996L11.8497 6.63532C13.0812 5.97279 14.4571 5.62433 15.8554 5.62083C17.2538 5.61734 18.6314 5.95892 19.8661 6.61529C21.1009 7.27167 22.1546 8.22256 22.9338 9.38365C23.6616 10.468 24.129 11.7045 24.3013 12.9966H20.6888C19.9091 12.9966 19.1371 13.1502 18.4168 13.4485C17.6965 13.7469 17.042 14.1842 16.4907 14.7355C15.9394 15.2868 15.5021 15.9413 15.2037 16.6616C14.9053 17.3819 14.7518 18.1539 14.7518 18.9336V22.5464C13.9583 22.4411 13.1832 22.2242 12.4496 21.9017ZM24.0968 22.3416C25.7896 20.6487 26.9177 18.4761 27.3298 16.1214H30.313C31.0588 16.1214 31.7741 16.4177 32.3015 16.9451C32.8289 17.4725 33.1252 18.1878 33.1252 18.9336V28.5578C33.1252 29.3037 32.8289 30.019 32.3015 30.5464C31.7741 31.0738 31.0588 31.37 30.313 31.37H20.6888C19.1365 31.37 17.8765 30.1101 17.8765 28.5578V25.5746C20.2313 25.1625 22.4039 24.0344 24.0968 22.3416ZM21.8856 20.1304C20.7798 21.2363 19.3923 22.0148 17.8765 22.3836V18.9336C17.8765 18.1878 18.1728 17.4725 18.7002 16.9451C19.2276 16.4177 19.9429 16.1214 20.6888 16.1214H24.1388C23.77 17.6371 22.9914 19.0246 21.8856 20.1304Z" fill="#A14E05" stroke="#A14E05" stroke-width="0.5"/>
</svg>
