<svg width="37" height="31" viewBox="0 0 37 31" fill="none" xmlns="http://www.w3.org/2000/svg">
<path d="M18.4993 30.7784C17.9785 30.7784 17.4731 30.6655 16.9829 30.4398C16.4928 30.214 16.064 29.8893 15.6964 29.4656L1.63569 12.897C1.35999 12.5651 1.15352 12.2029 1.01629 11.8106C0.87905 11.4183 0.809819 11.0108 0.808594 10.5883C0.808594 10.3167 0.831875 10.0378 0.878438 9.75175C0.925 9.46564 1.02425 9.20127 1.17619 8.95863L4.62243 2.21352C4.9594 1.60993 5.41155 1.12706 5.97887 0.76491C6.5462 0.402756 7.18153 0.22168 7.88487 0.22168H29.1137C29.8183 0.22168 30.4542 0.402756 31.0216 0.76491C31.5889 1.12706 32.0404 1.60993 32.3762 2.21352L35.8224 8.95863C35.9756 9.20007 36.0754 9.46383 36.122 9.74994C36.1685 10.036 36.1912 10.3155 36.19 10.5883C36.19 11.0108 36.1214 11.4183 35.9841 11.8106C35.8469 12.2029 35.6398 12.5651 35.3629 12.897L21.3022 29.4656C20.9346 29.8881 20.5058 30.2128 20.0156 30.4398C19.5255 30.6667 19.0201 30.7796 18.4993 30.7784ZM14.1341 9.27551H22.8645L20.1075 3.84321H16.891L14.1341 9.27551ZM16.6613 24.9839V12.897H6.46043L16.6613 24.9839ZM20.3373 24.9839L30.5382 12.897H20.3373V24.9839ZM26.9541 9.27551H31.8248L29.0678 3.84321H24.1971L26.9541 9.27551ZM5.17383 9.27551H10.0445L12.8015 3.84321H7.93082L5.17383 9.27551Z" fill="#A14E05"/>
</svg>
