<svg width="39" height="41" viewBox="0 0 39 41" fill="none" xmlns="http://www.w3.org/2000/svg">
<path d="M16.5 18.5C18.6217 18.5 20.6566 17.6572 22.1569 16.1569C23.6571 14.6566 24.5 12.6217 24.5 10.5C24.5 8.37827 23.6571 6.34344 22.1569 4.84315C20.6566 3.34286 18.6217 2.5 16.5 2.5C14.3783 2.5 12.3434 3.34286 10.8431 4.84315C9.34285 6.34344 8.5 8.37827 8.5 10.5C8.5 12.6217 9.34285 14.6566 10.8431 16.1569C12.3434 17.6572 14.3783 18.5 16.5 18.5Z" stroke="#A14E05" stroke-width="4" stroke-linecap="round" stroke-linejoin="round"/>
<path d="M2.5 34.5V32.5C2.49951 30.1379 3.09667 27.8141 4.23587 25.745C5.37508 23.6758 7.0193 21.9285 9.01547 20.6657C11.0116 19.4029 13.2949 18.6657 15.6526 18.5227C18.0103 18.3798 20.3659 18.8357 22.5 19.848M34.5 38.5L36.5 26.5L29.5 30.1L26.5 26.5L23.5 30.1L16.5 26.5L18.5 38.5H34.5Z" stroke="#A14E05" stroke-width="4" stroke-linecap="round" stroke-linejoin="round"/>
</svg>
