<svg width="453" height="138" viewBox="0 0 453 138" fill="none" xmlns="http://www.w3.org/2000/svg">
<g clip-path="url(#clip0_0_2977)">
<path d="M166.79 41.63H149.99V35.54H190.52V41.63H173.72V84.54H166.79V41.63Z" fill="#252831"/>
<path d="M191.99 60.04C191.99 45.69 203.05 34.98 218.1 34.98C233.15 34.98 244.07 45.62 244.07 60.04C244.07 74.46 233.01 85.1 218.1 85.1C203.19 85.1 191.99 74.39 191.99 60.04ZM237.07 60.04C237.07 49.19 228.95 41.21 218.1 41.21C207.25 41.21 198.99 49.19 198.99 60.04C198.99 70.89 207.11 78.87 218.1 78.87C229.09 78.87 237.07 70.89 237.07 60.04Z" fill="#252831"/>
<path d="M291.86 52.62C291.86 63.26 284.16 69.7 271.42 69.7H259.31V84.54H252.31V35.54H271.42C284.16 35.54 291.86 41.98 291.86 52.62ZM284.86 52.62C284.86 45.62 280.17 41.63 271.21 41.63H259.31V63.61H271.21C280.17 63.61 284.86 59.62 284.86 52.62Z" fill="#252831"/>
<path d="M311.82 41.63H295.02V35.54H335.55V41.63H318.75V84.54H311.82V41.63Z" fill="#252831"/>
<path d="M343.18 35.54H350.18V84.54H343.18V35.54Z" fill="#252831"/>
<path d="M400.44 78.45V84.54H364.88V35.54H399.46V41.63H371.88V56.68H396.45V62.63H371.88V78.45H400.44Z" fill="#252831"/>
<path d="M444.54 84.54L433.97 69.49C432.99 69.56 431.94 69.63 430.89 69.63H418.78V84.54H411.78V35.54H430.89C443.63 35.54 451.33 41.98 451.33 52.62C451.33 60.18 447.41 65.64 440.55 68.09L452.17 84.54H444.54ZM444.33 52.62C444.33 45.62 439.64 41.63 430.68 41.63H418.78V63.68H430.68C439.64 63.68 444.33 59.62 444.33 52.62Z" fill="#252831"/>
<path d="M216.27 101.69H209.3V99.1602H226.12V101.69H219.15V119.5H216.27V101.69Z" fill="#252831"/>
<path d="M255.07 119.5L250.68 113.25C250.27 113.28 249.84 113.31 249.4 113.31H244.37V119.5H241.47V99.1699H249.4C254.69 99.1699 257.88 101.84 257.88 106.26C257.88 109.4 256.25 111.66 253.41 112.68L258.23 119.51H255.06L255.07 119.5ZM254.98 106.25C254.98 103.35 253.03 101.69 249.32 101.69H244.38V110.84H249.32C253.04 110.84 254.98 109.16 254.98 106.25Z" fill="#252831"/>
<path d="M287.75 114.41H276.94L274.7 119.49H271.71L280.92 99.1602H283.8L293.04 119.49H289.99L287.75 114.41ZM286.73 112.09L282.34 102.13L277.95 112.09H286.72H286.73Z" fill="#252831"/>
<path d="M308.26 99.1602H316.83C323.37 99.1602 327.81 103.28 327.81 109.33C327.81 115.38 323.37 119.5 316.83 119.5H308.26V99.1702V99.1602ZM316.65 116.97C321.67 116.97 324.9 113.89 324.9 109.33C324.9 104.77 321.68 101.69 316.65 101.69H311.16V116.97H316.65Z" fill="#252831"/>
<path d="M359.2 116.97V119.5H344.44V99.1699H358.79V101.7H347.35V107.95H357.55V110.42H347.35V116.98H359.2V116.97Z" fill="#252831"/>
<path d="M389.7 119.5L385.31 113.25C384.9 113.28 384.47 113.31 384.03 113.31H379V119.5H376.1V99.1699H384.03C389.32 99.1699 392.51 101.84 392.51 106.26C392.51 109.4 390.88 111.66 388.04 112.68L392.86 119.51H389.69L389.7 119.5ZM389.61 106.25C389.61 103.35 387.66 101.69 383.95 101.69H379.01V110.84H383.95C387.67 110.84 389.61 109.16 389.61 106.25Z" fill="#252831"/>
<path d="M66.5 0L64.04 2.47L61.57 4.93L56.64 9.87L55.51 11L50.46 16.05H50.48C53.2 16.05 55.41 18.25 55.41 20.97L55.51 69.92H77.59L77.63 20.98C77.63 18.26 79.84 16.05 82.56 16.05L71.45 4.94L68.98 2.47L66.51 0L66.5 0Z" fill="#2852AB"/>
<path d="M48.53 22.9102L47.45 23.9902L41.54 29.9002L15.78 55.6602L10.7 60.7402H20.98C23.7 60.7402 25.91 62.9502 25.91 65.6702V69.9202H48.53V22.9102Z" fill="#2852AB"/>
<path d="M84.52 22.9502V69.9602H107.14V65.7102C107.14 62.9902 109.35 60.7802 112.07 60.7802H122.35L117.27 55.7002L91.51 29.9402L85.6 24.0302L84.52 22.9502Z" fill="#2852AB"/>
<path d="M133.05 76.8999L128.38 81.5799L117.3 92.6499L98.72 111.23V107.91C98.72 103.18 94.89 99.3399 90.15 99.3399H82.69V137.12L82.6 137.21L77.66 132.27H77.65L77.67 132.24L66.53 121.1H66.52L66.5 121.11L55.53 132.08L55.37 132.24H55.38L55.37 132.26L50.44 137.19L50.39 137.14V99.3199H42.93C38.2 99.3199 34.36 103.15 34.36 107.89V111.25L15.8 92.6899L4.67999 81.5699L-0.0100098 76.8799H133.04L133.05 76.8999Z" fill="#2852AB"/>
</g>
<defs>
<clipPath id="clip0_0_2977">
<rect width="452.17" height="137.22" fill="white"/>
</clipPath>
</defs>
</svg>
