<svg width="140" height="144" viewBox="0 0 140 144" fill="none" xmlns="http://www.w3.org/2000/svg">
<path d="M69.6186 0L67.0399 2.59103L64.4535 5.17441L59.2884 10.3565L58.0982 11.5411L52.8033 16.8455H52.8186C55.6644 16.8455 57.9761 19.1537 57.9837 22.0046L58.0905 73.3513H81.2077L81.2459 22.0123C81.2459 19.1537 83.5576 16.8455 86.411 16.8455L74.7761 5.1897L72.1897 2.59867L69.6033 0.00764315L69.6186 0Z" fill="#2852AB"/>
<path d="M50.7968 24.0301L49.6676 25.1613L43.4878 31.3522L16.5101 58.3784L11.1924 63.7057H21.9499C24.8033 63.7057 27.115 66.0215 27.115 68.8801V73.336H50.7968V24.0225V24.0301Z" fill="#2852AB"/>
<path d="M88.4861 24.0684V73.3819H112.168V68.926C112.168 66.0674 114.48 63.7516 117.333 63.7516H128.091L122.773 58.4243L95.7951 31.3981L89.6153 25.2072L88.4861 24.076V24.0684Z" fill="#2852AB"/>
<path d="M139.298 80.6582L134.408 85.5651L122.803 97.1827L103.348 116.68V113.195C103.348 108.235 99.3352 104.214 94.3837 104.214H86.5712V143.844L86.4796 143.943L81.3069 138.761H81.2992L81.3221 138.731L69.6644 127.052H69.6567L69.6415 127.06L58.1515 138.563L57.9837 138.731H57.9913L57.9837 138.754L52.8186 143.928L52.7728 143.882V104.214H44.9602C40.0087 104.214 35.9957 108.235 35.9957 113.195V116.719L16.5559 97.2438L4.91336 85.5804L0 80.6582H139.313H139.298Z" fill="#2852AB"/>
</svg>
