<svg width="50" height="25" viewBox="0 0 50 25" fill="none" xmlns="http://www.w3.org/2000/svg">
<path d="M7.475 25H0.65L9.925 0.499998H16.925L26.2 25H19.375L17.8 20.625H9.05L7.475 25ZM10.625 16.075H16.225L13.425 7.85L10.625 16.075ZM27.9486 0.499998H42.6486C45.0986 0.499998 46.872 1.06 47.9686 2.18C49.0886 3.27667 49.6486 5.05 49.6486 7.5V11C49.6486 13.45 49.0886 15.235 47.9686 16.355C46.872 17.4517 45.0986 18 42.6486 18H34.2486V25H27.9486V0.499998ZM43.3486 7.5C43.3486 6.1 42.6486 5.4 41.2486 5.4H34.2486V13.1H41.2486C42.6486 13.1 43.3486 12.4 43.3486 11V7.5Z" fill="black"/>
</svg>
